#!OML:ASF H:\LiuWeirdWalks\Patient Classification 1\Patient 1\Session 1\male.ASF
:FULLY-SPECIFIED
:DEGREES
584
root 2.52192 17.8088 36.0076 2.41117 0.68462 2.48479
lowerback 1.13495 0.171274 -3.8375
upperback 0.53754 0.194143 2.3029
thorax -0.104737 0.089141 4.52722
lowerneck -20.3086 0.508328 3.37532
upperneck 8.76496 0.587227 -5.81424
head 5.96474 -0.0848817 -2.35359
rclavicle 3.13086e-015 1.90833e-014
rhumerus -27.3637 0.732851 -74.3254
rradius 54.3584
rwrist -15.8076
rhand -17.2499 2.4407
rfingers 7.12502
rthumb 8.99418 -27.3476
lclavicle 3.13086e-015 1.90833e-014
lhumerus -36.1153 20.2296 80.1159
lradius 16.0036
lwrist -11.0205
lhand -12.2195 -3.5404
lfingers 7.12502
lthumb 13.8454 25.9788
rfemur -18.4813 1.31878 18.1527
rtibia 39.8358
rfoot -15.0217 -15.8701
rtoes -0.867444
lfemur -13.9173 -0.54245 -22.2487
ltibia 32.2685
lfoot -16.1742 15.3428
ltoes -17.158
585
root 2.54557 17.7998 36.0295 2.68127 0.75009 2.53312
lowerback 0.846475 0.285146 -3.68994
upperback 0.350515 0.355792 2.18706
thorax -0.151036 0.175124 4.32164
lowerneck -20.1664 0.365264 3.18682
upperneck 8.96008 0.439333 -5.68779
head 5.99648 -0.152183 -2.29882
rclavicle -1.44119e-014 -1.03368e-014
rhumerus -27.2821 0.216036 -73.9928
rradius 54.2137
rwrist -16.0849
rhand -17.432 2.40933
rfingers 7.12502
rthumb 8.81847 -27.3864
lclavicle -1.44119e-014 -1.03368e-014
lhumerus -36.6832 21.3939 79.0538
lradius 14.8872
lwrist -13.8149
lhand -11.4448 -3.93512
lfingers 7.12502
lthumb 14.592 25.5316
rfemur -18.819 1.25657 17.9844
rtibia 40.1278
rfoot -15.2919 -15.8053
rtoes -0.884371
lfemur -13.9778 -0.988848 -22.4757
ltibia 32.1028
lfoot -15.6073 15.5727
ltoes -15.4543
586
root 2.56656 17.7926 36.049 2.92429 0.870815 2.64168
lowerback 0.628554 0.346432 -3.71962
upperback 0.15146 0.443387 2.09692
thorax -0.241897 0.224912 4.24446
lowerneck -19.9779 0.271236 3.0501
upperneck 9.11943 0.348152 -5.60447
head 6.0127 -0.192974 -2.2596
rclavicle 1.51076e-014 -2.46493e-014
rhumerus -27.1953 -0.236826 -73.6813
rradius 53.9791
rwrist -16.3268
rhand -17.5867 2.40211
rfingers 7.12502
rthumb 8.6692 -27.3999
lclavicle 1.51076e-014 -2.46493e-014
lhumerus -37.3429 22.5471 77.9418
lradius 13.9287
lwrist -16.7394
lhand -10.5188 -4.31081
lfingers 7.12502
lthumb 15.484 25.0891
rfemur -19.1316 1.20469 17.7617
rtibia 40.4247
rfoot -15.5475 -15.8077
rtoes -0.914485
lfemur -14.0739 -1.45711 -22.7349
ltibia 32.0671
lfoot -15.1035 15.6413
ltoes -13.6351
587
root 2.58483 17.786 36.0661 3.09785 1.04062 2.82802
lowerback 0.53397 0.404052 -3.8581
upperback -0.0192242 0.521453 1.98317
thorax -0.372382 0.270416 4.20408
lowerneck -19.8899 0.16729 2.90823
upperneck 9.28142 0.239723 -5.50113
head 6.04506 -0.24212 -2.21566
rclavicle 7.70291e-015 3.97569e-015
rhumerus -27.0839 -0.792403 -73.3746
rradius 53.6423
rwrist -16.481
rhand -17.6992 2.401
rfingers 7.12502
rthumb 8.5606 -27.4055
lclavicle 7.70291e-015 3.97569e-015
lhumerus -37.9416 23.4861 76.9093
lradius 13.1233
lwrist -19.5946
lhand -9.41863 -4.58745
lfingers 7.12502
lthumb 16.5434 24.7273
rfemur -19.3769 1.16484 17.4682
rtibia 40.7369
rfoot -15.7873 -15.8786
rtoes -0.968287
lfemur -14.1626 -1.91759 -23.0463
ltibia 32.0613
lfoot -14.6073 15.5664
ltoes -11.9011
588
root 2.59966 17.7793 36.0809 3.17457 1.25296 3.08805
lowerback 0.573152 0.405464 -4.20287
upperback -0.156805 0.518279 1.89069
thorax -0.537849 0.276318 4.30273
lowerneck -19.8053 0.12916 2.86772
upperneck 9.39302 0.19986 -5.4639
head 6.06536 -0.259517 -2.20174
rclavicle 9.59136e-015 7.15625e-015
rhumerus -26.9164 -1.28355 -73.1163
rradius 53.1983
rwrist -16.5539
rhand -17.7861 2.40613
rfingers 7.12502
rthumb 8.47677 -27.4037
lclavicle 9.59136e-015 7.15625e-015
lhumerus -38.5285 24.3024 75.9592
lradius 12.4976
lwrist -22.2338
lhand -8.16233 -4.74194
lfingers 7.12502
lthumb 17.7526 24.4677
rfemur -19.5251 1.13832 17.1129
rtibia 41.0685
rfoot -16.0177 -16.0122
rtoes -1.01613
lfemur -14.2064 -2.31637 -23.4074
ltibia 32.0299
lfoot -14.023 15.4244
ltoes -10.5766
589
root 2.61127 17.7717 36.0941 3.12746 1.48792 3.40571
lowerback 0.757747 0.339004 -4.77601
upperback -0.268287 0.415419 1.84534
thorax -0.749485 0.23495 4.58069
lowerneck -19.6315 0.174387 2.93755
upperneck 9.40994 0.252569 -5.50939
head 6.04549 -0.232961 -2.22099
rclavicle 9.24349e-015 -1.43125e-014
rhumerus -26.7183 -1.626 -72.9155
rradius 52.6491
rwrist -16.5289
rhand -17.8528 2.39977
rfingers 7.12502
rthumb 8.41238 -27.4127
lclavicle 9.24349e-015 -1.43125e-014
lhumerus -39.1427 24.9854 75.1316
lradius 12.0651
lwrist -24.4733
lhand -6.77995 -4.75773
lfingers 7.12502
lthumb 19.0824 24.3262
rfemur -19.5422 1.12168 16.7149
rtibia 41.4146
rfoot -16.248 -16.1882
rtoes -1.03363
lfemur -14.1373 -2.61146 -23.8078
ltibia 31.962
lfoot -13.4183 15.2367
ltoes -9.70981
590
root 2.61971 17.7628 36.1071 2.96364 1.72634 3.75096
lowerback 1.03394 0.223563 -5.51587
upperback -0.318143 0.237967 1.83916
thorax -0.939404 0.156772 4.99661
lowerneck -19.4484 0.300368 3.11692
upperneck 9.3515 0.39292 -5.62659
head 6.00451 -0.165024 -2.27119
rclavicle 8.44835e-015 -1.11319e-014
rhumerus -26.4335 -1.87506 -72.7788
rradius 51.9749
rwrist -16.4123
rhand -17.9158 2.42215
rfingers 7.12502
rthumb 8.35159 -27.3927
lclavicle 8.44835e-015 -1.11319e-014
lhumerus -39.7071 25.5468 74.4435
lradius 11.7843
lwrist -26.3812
lhand -5.36861 -4.75193
lfingers 7.12502
lthumb 20.4392 24.1923
rfemur -19.4304 1.12184 16.3063
rtibia 41.7636
rfoot -16.4815 -16.3898
rtoes -1.00383
lfemur -13.9273 -2.78591 -24.2212
ltibia 31.8708
lfoot -12.8943 15.0233
ltoes -9.13452
591
root 2.62519 17.7533 36.1215 2.71694 1.95333 4.08792
lowerback 1.34017 0.111394 -6.28922
upperback -0.314959 0.0582561 1.83455
thorax -1.0871 0.0763959 5.43559
lowerneck -19.2706 0.436558 3.32046
upperneck 9.24837 0.537871 -5.73242
head 5.95066 -0.0925982 -2.32096
rclavicle -8.84592e-015 7.15625e-015
rhumerus -26.1391 -2.15945 -72.684
rradius 51.2031
rwrist -16.214
rhand -17.9958 2.41943
rfingers 7.12502
rthumb 8.27439 -27.3985
lclavicle -8.84592e-015 7.15625e-015
lhumerus -40.1534 25.8636 73.941
lradius 11.6182
lwrist -27.9145
lhand -3.98256 -4.72485
lfingers 7.12502
lthumb 21.7707 24.0708
rfemur -19.212 1.13727 15.9266
rtibia 42.0967
rfoot -16.7184 -16.6068
rtoes -0.918278
lfemur -13.5934 -2.85045 -24.6103
ltibia 31.77
lfoot -12.5604 14.7666
ltoes -8.83009
592
root 2.62845 17.7441 36.1379 2.4675 2.15571 4.3928
lowerback 1.61741 -0.00521907 -7.09806
upperback -0.256486 -0.129726 1.86975
thorax -1.15529 -0.0114471 5.93899
lowerneck -19.2897 0.596881 3.49445
upperneck 9.208 0.719691 -5.82729
head 5.9507 -0.00574734 -2.36053
rclavicle 9.01985e-015 -1.90833e-014
rhumerus -25.7449 -2.43949 -72.6047
rradius 50.3336
rwrist -15.9676
rhand -18.1089 2.37827
rfingers 7.12502
rthumb 8.16525 -27.444
lclavicle 9.01985e-015 -1.90833e-014
lhumerus -40.4348 26.0396 73.6702
lradius 11.5607
lwrist -29.0631
lhand -2.64106 -4.6651
lfingers 7.12502
lthumb 23.0584 23.9754
rfemur -18.9692 1.16326 15.5969
rtibia 42.3955
rfoot -16.9508 -16.8234
rtoes -0.775738
lfemur -13.2176 -2.82098 -24.9492
ltibia 31.6592
lfoot -12.4454 14.4458
ltoes -8.76287
593
root 2.63106 17.7355 36.1575 2.21572 2.32263 4.6626
lowerback 1.80829 0.0387343 -7.56324
upperback -0.128858 -0.0931038 1.75787
thorax -1.13585 0.00466539 6.08615
lowerneck -19.577 0.550349 3.41079
upperneck 9.30175 0.650818 -5.65078
head 6.02191 -0.0322714 -2.29971
rclavicle 2.45996e-015 -1.35174e-014
rhumerus -25.4452 -3.28719 -72.4881
rradius 49.4038
rwrist -15.6503
rhand -18.2614 2.31016
rfingers 7.12502
rthumb 8.01804 -27.5178
lclavicle 2.45996e-015 -1.35174e-014
lhumerus -40.2782 25.489 73.8249
lradius 11.5481
lwrist -29.7002
lhand -1.38058 -4.556
lfingers 7.12502
lthumb 24.2674 23.9282
rfemur -18.691 1.18927 15.3119
rtibia 42.6421
rfoot -17.1782 -17.015
rtoes -0.599433
lfemur -12.7953 -2.71688 -25.2435
ltibia 31.5282
lfoot -12.4821 14.107
ltoes -8.85579
